# xmcd CD database file
#
# Track frame offsets:
#	185
#	17185
#	33357
#	44620
#	64020
#	79480
#	91832
#	112052
#	125950
#	142970
#	160652
#	175245
#	192030
#	205810
#
# Disc length: 3025 seconds
#
# Revision: 2
# Processed by: cddbd v1.5.1PL0 Copyright (c) Steve Scherf et al.
# Submitted via: CDex 1.50beta10
#
DISCID=c30bcf0e
DTITLE=Anson Funderburgh and the Rockets Featuring Sam Myers - Tell Me What I Want To Hear
DYEAR=1991
DGENRE=Blues
TTITLE0=Tell Me What I Want To Hear
TTITLE1=Ways Of Man
TTITLE2=I Done Quit Getting Sloppy Drunk
TTITLE3=I Want A Wife
TTITLE4=I'm Innocent
TTITLE5=Shedding Tears of Laughter
TTITLE6=Rent Man Blues
TTITLE7=I Need You So
TTITLE8=Wait'in On You, Mamma
TTITLE9=It'll Do
TTITLE10=The Amateur (She's Gone)
TTITLE11=Missing Person
TTITLE12=Happy Man
TTITLE13=Down at J.J.'s
EXTD=YEAR: 1991
EXTT0=
EXTT1=
EXTT2=
EXTT3=
EXTT4=
EXTT5=
EXTT6=
EXTT7=
EXTT8=
EXTT9=
EXTT10=
EXTT11=
EXTT12=
EXTT13=
PLAYORDER=
